# Blender v2.93.8 OBJ File: 'Rock1.blend'
# www.blender.org
mtllib Rock1.mtl
o Rock1_Cube.057
v -1.179847 -0.157240 0.833336
v -1.313169 0.534672 0.833336
v -0.589008 -0.255300 -1.269252
v -0.589008 0.188321 -1.287059
v 0.803667 -0.297681 0.833336
v 0.948678 0.137006 0.833336
v 0.803667 -0.297681 -0.530245
v 0.948678 0.137006 -0.530245
v -0.660076 -0.319564 -0.245076
v -1.392947 0.245606 0.982741
v -1.220457 0.542056 0.151546
v -0.660076 0.020799 -1.456452
v -0.092311 -0.334536 -1.275754
v 0.213558 0.279897 -1.059435
v 1.019745 -0.042505 -0.679649
v 0.809209 -0.355244 0.151546
v 1.019745 0.218313 0.151546
v 1.019745 -0.042505 0.982741
v -0.092311 -0.334536 0.982741
v 0.213558 0.279897 0.982741
v -1.376344 -0.011581 0.151546
v 0.279395 -0.045079 -1.235240
v 1.168888 -0.062059 0.151546
v 0.279395 -0.045079 1.296280
v -0.264699 -0.467989 0.098546
v -0.097678 0.485007 0.151546
vt 0.375000 0.000000
vt 0.500000 0.125000
vt 0.375000 0.125000
vt 0.625000 0.000000
vt 0.500000 0.000000
vt 0.625000 0.250000
vt 0.500000 0.250000
vt 0.375000 0.250000
vt 0.375000 0.375000
vt 0.500000 0.375000
vt 0.625000 0.375000
vt 0.500000 0.500000
vt 0.375000 0.500000
vt 0.500000 0.625000
vt 0.375000 0.625000
vt 0.625000 0.500000
vt 0.625000 0.750000
vt 0.500000 0.750000
vt 0.375000 0.750000
vt 0.500000 0.875000
vt 0.375000 0.875000
vt 0.625000 0.875000
vt 0.500000 1.000000
vt 0.375000 1.000000
vt 0.250000 0.500000
vt 0.125000 0.625000
vt 0.125000 0.500000
vt 0.250000 0.625000
vt 0.250000 0.750000
vt 0.125000 0.750000
vt 0.750000 0.625000
vt 0.625000 0.625000
vt 0.875000 0.500000
vt 0.750000 0.500000
vt 0.875000 0.750000
vt 0.750000 0.750000
vt 0.625000 0.125000
vt 0.625000 1.000000
vt 0.875000 0.625000
vn -0.4264 -0.9018 -0.0698
vn -0.9710 0.2224 -0.0882
vn -0.7220 0.6189 -0.3092
vn -0.9495 -0.3019 -0.0848
vn -0.1025 -0.5762 -0.8109
vn 0.2175 0.6469 -0.7309
vn 0.5238 0.4850 -0.7003
vn 0.5288 -0.5942 -0.6061
vn 0.6303 -0.7732 -0.0704
vn 0.8724 0.4665 -0.1456
vn 0.8724 0.4665 0.1456
vn 0.6303 -0.7732 0.0704
vn 0.1304 -0.8008 0.5846
vn 0.2849 0.6773 0.6783
vn -0.0148 0.6927 0.7211
vn -0.1912 -0.4286 0.8830
vn -0.1580 -0.9847 -0.0728
vn 0.1094 -0.9906 -0.0825
vn 0.0972 -0.9867 0.1300
vn -0.3360 -0.9417 -0.0202
vn 0.2299 0.9633 -0.1388
vn -0.0604 0.9815 -0.1818
vn 0.1440 0.9720 0.1859
vn 0.2159 0.9666 0.1378
vn -0.8533 -0.5027 0.1385
vn -0.9548 0.2688 -0.1269
vn -0.8647 0.2435 -0.4394
vn -0.4911 -0.8386 -0.2356
vn 0.2172 -0.1438 -0.9655
vn 0.1840 0.4963 -0.8484
vn 0.5197 0.6586 -0.5441
vn 0.4308 -0.6990 -0.5708
vn 0.7120 -0.6872 -0.1439
vn 0.8733 0.4646 -0.1464
vn 0.8733 0.4646 0.1464
vn 0.7120 -0.6872 0.1439
vn 0.2960 -0.6567 0.6936
vn 0.2705 0.6963 0.6649
vn -0.0098 0.4613 0.8872
vn -0.2453 -0.5499 0.7984
vn -0.2518 -0.9597 -0.1248
vn 0.1082 -0.9905 -0.0845
vn 0.0550 -0.9949 0.0844
vn -0.1825 -0.9663 0.1814
vn 0.2567 0.9616 -0.0969
vn 0.0495 0.9747 -0.2179
vn 0.0507 0.9986 0.0177
vn 0.2295 0.9615 0.1513
usemtl Rock1
s off
f 1/1/1 21/2/1 9/3/1
f 2/4/2 21/2/2 10/5/2
f 21/2/3 4/6/3 12/7/3
f 9/3/4 12/7/4 3/8/4
f 12/7/5 13/9/5 3/8/5
f 4/6/6 22/10/6 12/7/6
f 14/11/7 15/12/7 22/10/7
f 22/10/8 7/13/8 13/9/8
f 7/13/9 23/14/9 16/15/9
f 8/16/10 23/14/10 15/12/10
f 23/14/11 6/17/11 18/18/11
f 23/14/12 5/19/12 16/15/12
f 5/19/13 24/20/13 19/21/13
f 6/17/14 24/20/14 18/18/14
f 20/22/15 10/23/15 24/20/15
f 19/21/16 10/23/16 1/24/16
f 13/25/17 9/26/17 3/27/17
f 7/13/18 25/28/18 13/25/18
f 16/15/19 19/29/19 25/28/19
f 25/28/20 1/30/20 9/26/20
f 8/16/21 26/31/21 17/32/21
f 4/33/22 26/31/22 14/34/22
f 26/31/23 2/35/23 20/36/23
f 17/32/24 20/36/24 6/17/24
f 1/1/25 10/5/25 21/2/25
f 2/4/26 11/37/26 21/2/26
f 21/2/27 11/37/27 4/6/27
f 9/3/28 21/2/28 12/7/28
f 12/7/29 22/10/29 13/9/29
f 4/6/30 14/11/30 22/10/30
f 14/11/31 8/16/31 15/12/31
f 22/10/32 15/12/32 7/13/32
f 7/13/33 15/12/33 23/14/33
f 8/16/34 17/32/34 23/14/34
f 23/14/35 17/32/35 6/17/35
f 23/14/36 18/18/36 5/19/36
f 5/19/37 18/18/37 24/20/37
f 6/17/38 20/22/38 24/20/38
f 20/22/39 2/38/39 10/23/39
f 19/21/40 24/20/40 10/23/40
f 13/25/41 25/28/41 9/26/41
f 7/13/42 16/15/42 25/28/42
f 16/15/43 5/19/43 19/29/43
f 25/28/44 19/29/44 1/30/44
f 8/16/45 14/34/45 26/31/45
f 4/33/46 11/39/46 26/31/46
f 26/31/47 11/39/47 2/35/47
f 17/32/48 26/31/48 20/36/48
